<svg xmlns="http://www.w3.org/2000/svg" xmlns:xlink="http://www.w3.org/1999/xlink" viewBox="0 0 48 60" version="1.1" x="0px" y="0px"><title>mid_autumn_028-mooncake-festival-flower-ornament</title><desc>Created with Sketch.</desc><g stroke="none" stroke-width="1" fill="none" fill-rule="evenodd"><g transform="translate(-240.000000, -96.000000)" fill-rule="nonzero" fill="#000000"><g transform="translate(248.000000, 104.000000)"><path d="M13.032761,3.25930359 C12.9315148,3.62770212 12.4712372,3.75103314 12.1993561,3.48261376 C11.2221008,2.51780112 9.70716897,2.31265962 8.5,3.00961894 C7.29283103,3.70657827 6.71302287,5.12111848 7.05994746,6.44985274 C7.15646494,6.81951832 6.81951832,7.15646494 6.44985274,7.05994746 C5.12111848,6.71302287 3.70657827,7.29283103 3.00961894,8.5 C2.31265962,9.70716897 2.51780112,11.2221008 3.48261376,12.1993561 C3.75103314,12.4712372 3.62770212,12.9315148 3.25930359,13.032761 C1.93512367,13.3966826 1,14.6060813 1,16 C1,17.3939187 1.93512367,18.6033174 3.25930359,18.967239 C3.62770212,19.0684852 3.75103314,19.5287628 3.48261376,19.8006439 C2.51780112,20.7778992 2.31265962,22.292831 3.00961894,23.5 C3.70657827,24.707169 5.12111848,25.2869771 6.44985274,24.9400525 C6.81951832,24.8435351 7.15646494,25.1804817 7.05994746,25.5501473 C6.71302287,26.8788815 7.29283103,28.2934217 8.5,28.9903811 C9.70716897,29.6873404 11.2221008,29.4821989 12.1993561,28.5173862 C12.4712372,28.2489669 12.9315148,28.3722979 13.032761,28.7406964 C13.3966826,30.0648763 14.6060813,31 16,31 C17.3939187,31 18.6033174,30.0648763 18.967239,28.7406964 C19.0684852,28.3722979 19.5287628,28.2489669 19.8006439,28.5173862 C20.7778992,29.4821989 22.292831,29.6873404 23.5,28.9903811 C24.707169,28.2934217 25.2869771,26.8788815 24.9400525,25.5501473 C24.8435351,25.1804817 25.1804817,24.8435351 25.5501473,24.9400525 C26.8788815,25.2869771 28.2934217,24.707169 28.9903811,23.5 C29.6873404,22.292831 29.4821989,20.7778992 28.5173862,19.8006439 C28.2489669,19.5287628 28.3722979,19.0684852 28.7406964,18.967239 C30.0648763,18.6033174 31,17.3939187 31,16 C31,14.6060813 30.0648763,13.3966826 28.7406964,13.032761 C28.3722979,12.9315148 28.2489669,12.4712372 28.5173862,12.1993561 C29.4821989,11.2221008 29.6873404,9.70716897 28.9903811,8.5 C28.2934217,7.29283103 26.8788815,6.71302287 25.5501473,7.05994746 C25.1804817,7.15646494 24.8435351,6.81951832 24.9400525,6.44985274 C25.2869771,5.12111848 24.707169,3.70657827 23.5,3.00961894 C22.292831,2.31265962 20.7778992,2.51780112 19.8006439,3.48261376 C19.5287628,3.75103314 19.0684852,3.62770212 18.967239,3.25930359 C18.6033174,1.93512367 17.3939187,1 16,1 C14.6060813,1 13.3966826,1.93512367 13.032761,3.25930359 Z M16,0 C17.5926836,0 19.0031953,0.921065199 19.6707967,2.30040031 C20.938624,1.43966176 22.6206956,1.34725175 24,2.14359354 C25.3793044,2.93993533 26.1403108,4.44285704 26.028803,5.97119699 C27.557143,5.85968919 29.0600647,6.62069557 29.8564065,8 C30.6527482,9.37930443 30.5603382,11.061376 29.6995997,12.3292033 C31.0789348,12.9968047 32,14.4073164 32,16 C32,17.5926836 31.0789348,19.0031953 29.6995997,19.6707967 C30.5603382,20.938624 30.6527482,22.6206956 29.8564065,24 C29.0600647,25.3793044 27.557143,26.1403108 26.028803,26.028803 C26.1403108,27.557143 25.3793044,29.0600647 24,29.8564065 C22.6206956,30.6527482 20.938624,30.5603382 19.6707967,29.6995997 C19.0031953,31.0789348 17.5926836,32 16,32 C14.4073164,32 12.9968047,31.0789348 12.3292033,29.6995997 C11.061376,30.5603382 9.37930443,30.6527482 8,29.8564065 C6.62069557,29.0600647 5.85968919,27.557143 5.97119699,26.028803 C4.44285704,26.1403108 2.93993532,25.3793044 2.14359354,24 C1.34725175,22.6206956 1.43966176,20.938624 2.30040031,19.6707967 C0.921065199,19.0031953 0,17.5926836 0,16 C0,14.4073164 0.921065199,12.9968047 2.30040031,12.3292033 C1.43966176,11.061376 1.34725175,9.37930443 2.14359354,8 C2.93993533,6.62069557 4.44285704,5.85968919 5.97119699,5.97119699 C5.85968919,4.44285704 6.62069557,2.93993532 8,2.14359354 C9.37930443,1.34725175 11.061376,1.43966176 12.3292033,2.30040031 C12.9968047,0.921065199 14.4073164,0 16,0 Z"/><path d="M13.4510576,14.4171723 C12.903543,12.8504827 12.5554506,10.8776485 12.506068,8.96618648 C12.4916869,8.95467809 12.4777939,8.94225999 12.4644661,8.92893219 C11.4198942,7.88436031 10.3743751,7.42512274 9.38552546,7.41896126 C8.70674978,7.41473183 8.08959664,7.6469474 7.86827202,7.86827202 C7.6469474,8.08959664 7.41473183,8.70674978 7.41896126,9.38552546 C7.42512274,10.3743751 7.88436031,11.4198942 8.92893219,12.4644661 C10.1470247,13.6825586 11.6746735,14.7806763 13.0371941,15.5262567 C13.0127141,15.6805696 13,15.8388 13,16 C13,16.2349535 13.0270096,16.4635986 13.0780933,16.6829997 C11.5832067,15.9623249 9.94219227,14.8135255 8.55575974,13.4969258 C8.53745312,13.4989571 8.51884836,13.5 8.5,13.5 C7.02275229,13.5 5.95872865,13.9145636 5.25514951,14.6094291 C4.77219197,15.0864053 4.5,15.6869997 4.5,16 C4.5,16.3130003 4.77219197,16.9135947 5.25514951,17.3905709 C5.95872865,18.0854364 7.02275229,18.5 8.5,18.5 C10.2227318,18.5 12.0795319,18.1962443 13.5702235,17.7599655 C13.7984708,18.0745337 14.0863119,18.3430509 14.4171723,18.5489424 C12.8504827,19.096457 10.8776485,19.4445494 8.96618648,19.493932 C8.95467809,19.5083131 8.94225999,19.5222061 8.92893219,19.5355339 C7.88436031,20.5801058 7.42512274,21.6256249 7.41896126,22.6144745 C7.41473183,23.2932502 7.6469474,23.9104034 7.86827202,24.131728 C8.08959664,24.3530526 8.70674978,24.5852682 9.38552546,24.5810387 C10.3743751,24.5748773 11.4198942,24.1156397 12.4644661,23.0710678 C13.6825586,21.8529753 14.7806763,20.3253265 15.5262567,18.9628059 C15.6805696,18.9872859 15.8388,19 16,19 C16.2349535,19 16.4635986,18.9729904 16.6829997,18.9219067 C15.9623249,20.4167933 14.8135255,22.0578077 13.4969258,23.4442403 C13.4989571,23.4625469 13.5,23.4811516 13.5,23.5 C13.5,24.9772477 13.9145636,26.0412714 14.6094291,26.7448505 C15.0864053,27.227808 15.6869997,27.5 16,27.5 C16.3130003,27.5 16.9135947,27.227808 17.3905709,26.7448505 C18.0854364,26.0412714 18.5,24.9772477 18.5,23.5 C18.5,21.7772682 18.1962443,19.9204681 17.7599655,18.4297765 C18.0745337,18.2015292 18.3430509,17.9136881 18.5489424,17.5828277 C19.096457,19.1495173 19.4445494,21.1223515 19.493932,23.0338135 C19.5083131,23.0453219 19.5222061,23.05774 19.5355339,23.0710678 C20.5801058,24.1156397 21.6256249,24.5748773 22.6144745,24.5810387 C23.2932502,24.5852682 23.9104034,24.3530526 24.131728,24.131728 C24.3530526,23.9104034 24.5852682,23.2932502 24.5810387,22.6144745 C24.5748773,21.6256249 24.1156397,20.5801058 23.0710678,19.5355339 C21.8529753,18.3174414 20.3253265,17.2193237 18.9628059,16.4737433 C18.9872859,16.3194304 19,16.1612 19,16 C19,15.7650465 18.9729904,15.5364014 18.9219067,15.3170003 C20.4167933,16.0376751 22.0578077,17.1864745 23.4442403,18.5030742 C23.4625469,18.5010429 23.4811516,18.5 23.5,18.5 C24.9772477,18.5 26.0412714,18.0854364 26.7448505,17.3905709 C27.227808,16.9135947 27.5,16.3130003 27.5,16 C27.5,15.6869997 27.227808,15.0864053 26.7448505,14.6094291 C26.0412714,13.9145636 24.9772477,13.5 23.5,13.5 C21.7772682,13.5 19.9204681,13.8037557 18.4297765,14.2400345 C18.2015292,13.9254663 17.9136881,13.6569491 17.5828277,13.4510576 C19.1495173,12.903543 21.1223515,12.5554506 23.0338135,12.506068 C23.0453219,12.4916869 23.05774,12.4777939 23.0710678,12.4644661 C24.1156397,11.4198942 24.5748773,10.3743751 24.5810387,9.38552546 C24.5852682,8.70674978 24.3530526,8.08959664 24.131728,7.86827202 C23.9104034,7.6469474 23.2932502,7.41473183 22.6144745,7.41896126 C21.6256249,7.42512274 20.5801058,7.88436031 19.5355339,8.92893219 C18.3174414,10.1470247 17.2193237,11.6746735 16.4737433,13.0371941 C16.3194304,13.0127141 16.1612,13 16,13 C15.7650465,13 15.5364014,13.0270096 15.3170003,13.0780933 C16.0376751,11.5832067 17.1864745,9.94219227 18.5030742,8.55575974 C18.5010429,8.53745312 18.5,8.51884836 18.5,8.5 C18.5,7.02275229 18.0854364,5.95872865 17.3905709,5.25514951 C16.9135947,4.77219197 16.3130003,4.5 16,4.5 C15.6869997,4.5 15.0864053,4.77219197 14.6094291,5.25514951 C13.9145636,5.95872865 13.5,7.02275229 13.5,8.5 C13.5,10.2227318 13.8037557,12.0795319 14.2400345,13.5702235 C13.9254663,13.7984708 13.6569491,14.0863119 13.4510576,14.4171723 Z M12.5459644,7.66122032 C12.8403877,5.03635758 14.4971234,3.5 16,3.5 C17.5028766,3.5 19.1596123,5.03635758 19.4540356,7.66122032 C21.5182827,6.01335085 23.7761405,6.09847097 24.8388348,7.16116524 C25.901529,8.2238595 25.9866492,10.4817173 24.3387797,12.5459644 C26.9636424,12.8403877 28.5,14.4971234 28.5,16 C28.5,17.5028766 26.9636424,19.1596123 24.3387797,19.4540356 C25.9866492,21.5182827 25.901529,23.7761405 24.8388348,24.8388348 C23.7761405,25.901529 21.5182827,25.9866492 19.4540356,24.3387797 C19.1596123,26.9636424 17.5028766,28.5 16,28.5 C14.4971234,28.5 12.8403877,26.9636424 12.5459644,24.3387797 C10.4817173,25.9866492 8.2238595,25.901529 7.16116524,24.8388348 C6.09847097,23.7761405 6.01335085,21.5182827 7.66122032,19.4540356 C5.03635758,19.1596123 3.5,17.5028766 3.5,16 C3.5,14.4971234 5.03635758,12.8403877 7.66122032,12.5459644 C6.01335085,10.4817173 6.09847097,8.2238595 7.16116524,7.16116524 C8.2238595,6.09847097 10.4817173,6.01335085 12.5459644,7.66122032 Z"/><path d="M16,20 C13.790861,20 12,18.209139 12,16 C12,13.790861 13.790861,12 16,12 C18.209139,12 20,13.790861 20,16 C20,18.209139 18.209139,20 16,20 Z M16,19 C17.6568542,19 19,17.6568542 19,16 C19,14.3431458 17.6568542,13 16,13 C14.3431458,13 13,14.3431458 13,16 C13,17.6568542 14.3431458,19 16,19 Z"/></g></g></g><text x="0" y="63" fill="#000000" font-size="5px" font-weight="bold" font-family="'Helvetica Neue', Helvetica, Arial-Unicode, Arial, Sans-serif">Created by Xinh Studio</text><text x="0" y="68" fill="#000000" font-size="5px" font-weight="bold" font-family="'Helvetica Neue', Helvetica, Arial-Unicode, Arial, Sans-serif">from the Noun Project</text></svg>